<svg xmlns="http://www.w3.org/2000/svg" xmlns:xlink="http://www.w3.org/1999/xlink" width="500" zoomAndPan="magnify" viewBox="0 0 375 374.999991" height="500" preserveAspectRatio="xMidYMid meet" version="1.0"><defs><g/><clipPath id="a8613ac964"><path d="M 93.992188 55.945312 L 280.742188 55.945312 L 280.742188 242.695312 L 93.992188 242.695312 Z M 93.992188 55.945312 " clip-rule="nonzero"/></clipPath><clipPath id="509a3936c2"><path d="M 134.476562 171 L 186 171 L 186 198.375 L 134.476562 198.375 Z M 134.476562 171 " clip-rule="nonzero"/></clipPath><clipPath id="9d73f679d0"><path d="M 145 127.875 L 230 127.875 L 230 156 L 145 156 Z M 145 127.875 " clip-rule="nonzero"/></clipPath><clipPath id="4071749ce9"><path d="M 189 137 L 240.226562 137 L 240.226562 170 L 189 170 Z M 189 137 " clip-rule="nonzero"/></clipPath><clipPath id="b76aec2793"><path d="M 134.476562 137 L 240 137 L 240 198.375 L 134.476562 198.375 Z M 134.476562 137 " clip-rule="nonzero"/></clipPath><clipPath id="d3a28c148d"><path d="M 169.792969 89.382812 L 205.042969 89.382812 L 205.042969 127.632812 L 169.792969 127.632812 Z M 169.792969 89.382812 " clip-rule="nonzero"/></clipPath><clipPath id="4c33769622"><path d="M 204.871094 119.09375 C 201.4375 124.230469 195.582031 127.613281 188.9375 127.613281 C 178.363281 127.613281 169.792969 119.058594 169.792969 108.507812 C 169.792969 98.078125 178.164062 89.601562 188.5625 89.402344 C 181.558594 91.609375 176.480469 98.144531 176.480469 105.863281 C 176.480469 115.394531 184.222656 123.121094 193.769531 123.121094 C 197.996094 123.121094 201.867188 121.609375 204.871094 119.09375 Z M 192.695312 102.714844 L 184.851562 101.726562 L 190.898438 106.8125 L 187.53125 113.957031 L 194.25 109.785156 L 200.015625 115.191406 L 198.117188 107.527344 L 205.046875 103.71875 L 197.160156 103.15625 L 195.675781 95.398438 Z M 192.695312 102.714844 " clip-rule="nonzero"/></clipPath></defs><g clip-path="url(#a8613ac964)"><path fill="#008037" d="M 187.367188 242.667969 L 186.207031 241.195312 C 183.542969 237.808594 179.992188 235.242188 175.941406 233.769531 L 170.503906 231.800781 C 164.292969 229.546875 159.902344 223.996094 159.027344 217.566406 C 153.917969 221.136719 147.175781 221.796875 141.410156 219.101562 L 136.171875 216.652344 C 132.265625 214.824219 127.9375 214.128906 123.65625 214.640625 L 121.796875 214.863281 L 122.019531 213.003906 C 122.53125 208.722656 121.835938 204.394531 120.007812 200.488281 L 117.558594 195.25 C 114.867188 189.503906 115.519531 182.785156 119.054688 177.6875 C 112.640625 176.796875 107.109375 172.410156 104.859375 166.210938 L 102.890625 160.773438 C 101.417969 156.722656 98.855469 153.171875 95.464844 150.507812 L 93.992188 149.351562 L 95.464844 148.191406 C 98.851562 145.527344 101.417969 141.972656 102.890625 137.925781 L 104.859375 132.488281 C 107.113281 126.277344 112.664062 121.886719 119.09375 121.007812 C 115.523438 115.902344 114.859375 109.164062 117.558594 103.394531 L 120.007812 98.15625 C 121.835938 94.25 122.53125 89.925781 122.019531 85.640625 L 121.796875 83.78125 L 123.65625 84.003906 C 127.9375 84.515625 132.265625 83.820312 136.171875 81.992188 L 141.410156 79.542969 C 147.179688 76.84375 153.917969 77.507812 159.027344 81.078125 C 159.902344 74.648438 164.292969 69.097656 170.503906 66.847656 L 175.941406 64.875 C 179.992188 63.40625 183.542969 60.839844 186.207031 57.449219 L 187.367188 55.976562 L 188.527344 57.449219 C 191.191406 60.835938 194.746094 63.402344 198.796875 64.871094 L 204.230469 66.84375 C 210.441406 69.097656 214.832031 74.648438 215.710938 81.074219 C 220.816406 77.503906 227.558594 76.839844 233.324219 79.539062 L 238.566406 81.988281 C 242.46875 83.816406 246.796875 84.511719 251.078125 84 L 252.9375 83.777344 L 252.714844 85.636719 C 252.203125 89.917969 252.902344 94.246094 254.726562 98.152344 L 257.175781 103.390625 C 259.875 109.160156 259.210938 115.898438 255.644531 121.003906 C 262.070312 121.882812 267.621094 126.273438 269.875 132.484375 L 271.847656 137.921875 C 273.316406 141.972656 275.882812 145.523438 279.273438 148.1875 L 280.742188 149.347656 L 279.273438 150.507812 C 275.886719 153.171875 273.316406 156.726562 271.847656 160.773438 L 269.875 166.210938 C 267.628906 172.410156 262.09375 176.796875 255.679688 177.6875 C 259.214844 182.785156 259.867188 189.503906 257.175781 195.25 L 254.726562 200.488281 C 252.902344 204.394531 252.203125 208.71875 252.714844 213.003906 L 252.9375 214.863281 L 251.078125 214.640625 C 246.796875 214.128906 242.46875 214.824219 238.566406 216.652344 L 233.324219 219.101562 C 227.554688 221.796875 220.816406 221.136719 215.710938 217.566406 C 214.832031 223.996094 210.441406 229.546875 204.230469 231.796875 L 198.796875 233.765625 C 194.742188 235.238281 191.191406 237.800781 188.527344 241.191406 Z M 161.808594 210.996094 L 161.808594 215.199219 C 161.808594 221.367188 165.707031 226.925781 171.503906 229.03125 L 176.941406 231.003906 C 180.945312 232.457031 184.519531 234.859375 187.363281 238.003906 C 190.210938 234.859375 193.78125 232.457031 197.789062 231.003906 L 203.222656 229.03125 C 209.023438 226.929688 212.917969 221.367188 212.917969 215.199219 L 212.917969 210.996094 L 215.4375 213.511719 C 219.800781 217.875 226.484375 219.050781 232.074219 216.4375 L 237.3125 213.988281 C 241.171875 212.183594 245.394531 211.355469 249.632812 211.566406 C 249.421875 207.332031 250.246094 203.109375 252.050781 199.246094 L 254.5 194.007812 C 257.117188 188.421875 255.941406 181.734375 251.578125 177.371094 L 248.714844 174.507812 L 253.332031 174.914062 C 259.472656 174.890625 265.003906 171 267.097656 165.21875 L 269.070312 159.78125 C 270.523438 155.777344 272.929688 152.203125 276.074219 149.359375 C 272.929688 146.511719 270.523438 142.941406 269.070312 138.9375 L 267.097656 133.5 C 265 127.699219 259.4375 123.804688 253.265625 123.804688 L 249.066406 123.804688 L 251.582031 121.285156 C 255.941406 116.925781 257.117188 110.238281 254.503906 104.648438 L 252.054688 99.410156 C 250.25 95.550781 249.425781 91.324219 249.636719 87.089844 C 245.402344 87.300781 241.175781 86.480469 237.316406 84.671875 L 232.078125 82.222656 C 226.488281 79.605469 219.800781 80.78125 215.441406 85.144531 L 212.921875 87.660156 L 212.921875 83.445312 C 212.921875 77.273438 209.027344 71.714844 203.226562 69.613281 L 197.789062 67.640625 C 193.785156 66.1875 190.214844 63.785156 187.367188 60.636719 C 184.523438 63.785156 180.949219 66.1875 176.945312 67.640625 L 171.507812 69.613281 C 165.710938 71.714844 161.8125 77.269531 161.8125 83.445312 L 161.8125 87.644531 L 159.296875 85.128906 C 154.929688 80.769531 148.246094 79.59375 142.660156 82.207031 L 137.417969 84.65625 C 133.558594 86.460938 129.335938 87.285156 125.097656 87.074219 C 125.308594 91.3125 124.484375 95.535156 122.679688 99.394531 L 120.230469 104.636719 C 117.613281 110.222656 118.789062 116.910156 123.152344 121.273438 L 125.667969 123.789062 L 121.464844 123.789062 C 115.292969 123.789062 109.738281 127.6875 107.632812 133.484375 L 105.660156 138.921875 C 104.207031 142.925781 101.804688 146.5 98.65625 149.34375 C 101.804688 152.191406 104.207031 155.761719 105.660156 159.765625 L 107.632812 165.203125 C 109.730469 170.984375 115.253906 174.875 121.402344 174.898438 L 126.019531 174.492188 L 123.152344 177.355469 C 118.792969 181.71875 117.617188 188.40625 120.230469 193.992188 L 122.679688 199.234375 C 124.484375 203.09375 125.308594 207.316406 125.097656 211.554688 C 129.335938 211.339844 133.558594 212.167969 137.417969 213.972656 L 142.660156 216.421875 C 148.246094 219.039062 154.933594 217.863281 159.296875 213.5 Z M 161.808594 210.996094 " fill-opacity="1" fill-rule="nonzero"/></g><g clip-path="url(#509a3936c2)"><path fill="#008037" d="M 185.847656 177.800781 L 163.796875 194.234375 C 161.984375 195.574219 160.011719 196.601562 157.878906 197.308594 C 155.742188 198.015625 153.550781 198.375 151.300781 198.378906 L 134.894531 198.378906 L 177.4375 171.542969 L 184.238281 176.609375 Z M 185.847656 177.800781 " fill-opacity="1" fill-rule="nonzero"/></g><g clip-path="url(#9d73f679d0)"><path fill="#008037" d="M 229.542969 129.972656 L 187.375 155.980469 L 145.394531 130.125 L 148.125 127.898438 L 186.859375 151.757812 C 187.171875 151.949219 187.484375 151.949219 187.796875 151.757812 L 226.570312 127.875 Z M 229.542969 129.972656 " fill-opacity="1" fill-rule="nonzero"/></g><path fill="#008037" d="M 236.027344 132.429688 L 230.953125 135.632812 L 187.375 163.148438 L 143.765625 135.640625 L 138.386719 132.253906 L 141.421875 129.789062 L 143.460938 131.027344 L 186.855469 157.902344 C 186.992188 157.984375 187.144531 158.027344 187.304688 158.03125 C 187.464844 158.027344 187.613281 157.984375 187.753906 157.902344 L 231.652344 130.792969 L 233.222656 129.824219 Z M 236.027344 132.429688 " fill-opacity="1" fill-rule="nonzero"/><g clip-path="url(#4071749ce9)"><path fill="#008037" d="M 240.210938 137.300781 L 197.191406 169.355469 L 193.953125 167.316406 L 189.039062 164.210938 L 231.675781 137.300781 Z M 240.210938 137.300781 " fill-opacity="1" fill-rule="nonzero"/></g><g clip-path="url(#b76aec2793)"><path fill="#008037" d="M 239.804688 198.378906 L 223.40625 198.378906 C 221.15625 198.375 218.964844 198.015625 216.828125 197.308594 C 214.691406 196.601562 212.71875 195.574219 210.910156 194.234375 L 187.890625 177.082031 L 185.722656 175.464844 L 134.496094 137.300781 L 143.011719 137.300781 L 186.859375 164.976562 L 191.453125 167.875 L 196.734375 171.207031 Z M 239.804688 198.378906 " fill-opacity="1" fill-rule="nonzero"/></g><g clip-path="url(#d3a28c148d)"><g clip-path="url(#4c33769622)"><path fill="#008037" d="M 169.792969 89.402344 L 169.792969 127.613281 L 205.042969 127.613281 L 205.042969 89.402344 Z M 169.792969 89.402344 " fill-opacity="1" fill-rule="nonzero"/></g></g><g fill="#000000" fill-opacity="1"><g transform="translate(42.952247, 310.464911)"><g><path d="M 2.03125 -45.734375 L 16.078125 -45.734375 C 18.316406 -45.734375 20.046875 -45.226562 21.265625 -44.21875 C 22.492188 -43.207031 23.320312 -41.785156 23.75 -39.953125 C 24.175781 -38.128906 24.390625 -35.800781 24.390625 -32.96875 C 24.390625 -30.375 24.050781 -28.347656 23.375 -26.890625 C 22.695312 -25.429688 21.523438 -24.421875 19.859375 -23.859375 C 21.242188 -23.578125 22.242188 -22.882812 22.859375 -21.78125 C 23.484375 -20.675781 23.796875 -19.1875 23.796875 -17.3125 L 23.703125 0 L 14.75 0 L 14.75 -17.890625 C 14.75 -19.171875 14.5 -19.988281 14 -20.34375 C 13.507812 -20.695312 12.601562 -20.875 11.28125 -20.875 L 11.28125 0 L 2.03125 0 Z M 13.53125 -28.8125 C 14.800781 -28.8125 15.4375 -30.195312 15.4375 -32.96875 C 15.4375 -34.164062 15.382812 -35.066406 15.28125 -35.671875 C 15.175781 -36.273438 14.976562 -36.691406 14.6875 -36.921875 C 14.40625 -37.160156 14 -37.28125 13.46875 -37.28125 L 11.34375 -37.28125 L 11.34375 -28.8125 Z M 13.53125 -28.8125 "/></g></g></g><g fill="#000000" fill-opacity="1"><g transform="translate(73.678899, 310.464911)"><g><path d="M 2.03125 0 L 2.03125 -45.734375 L 20.34375 -45.734375 L 20.34375 -36.90625 L 11.34375 -36.90625 L 11.34375 -28.015625 L 19.96875 -28.015625 L 19.96875 -19.390625 L 11.34375 -19.390625 L 11.34375 -8.890625 L 20.921875 -8.890625 L 20.921875 0 Z M 2.03125 0 "/></g></g></g><g fill="#000000" fill-opacity="1"><g transform="translate(100.944297, 310.464911)"><g><path d="M 0.796875 0 L 5.21875 -45.734375 L 20.71875 -45.734375 L 25.078125 0 L 16.40625 0 L 15.765625 -7.40625 L 10.21875 -7.40625 L 9.6875 0 Z M 10.921875 -14.703125 L 15.0625 -14.703125 L 13.046875 -37.96875 L 12.625 -37.96875 Z M 10.921875 -14.703125 "/></g></g></g><g fill="#000000" fill-opacity="1"><g transform="translate(132.096944, 310.464911)"><g><path d="M 2.03125 -45.734375 L 14.640625 -45.734375 C 17.910156 -45.734375 20.359375 -44.828125 21.984375 -43.015625 C 23.617188 -41.210938 24.457031 -38.535156 24.5 -34.984375 L 24.59375 -13.578125 C 24.632812 -9.066406 23.851562 -5.675781 22.25 -3.40625 C 20.65625 -1.132812 18.015625 0 14.328125 0 L 2.03125 0 Z M 12.828125 -8.09375 C 14.503906 -8.09375 15.34375 -8.910156 15.34375 -10.546875 L 15.34375 -34.140625 C 15.34375 -35.160156 15.257812 -35.925781 15.09375 -36.4375 C 14.9375 -36.957031 14.644531 -37.304688 14.21875 -37.484375 C 13.789062 -37.660156 13.132812 -37.75 12.25 -37.75 L 11.234375 -37.75 L 11.234375 -8.09375 Z M 12.828125 -8.09375 "/></g></g></g><g fill="#000000" fill-opacity="1"><g transform="translate(163.675597, 310.464911)"><g/></g></g><g fill="#000000" fill-opacity="1"><g transform="translate(181.462484, 310.464911)"><g><path d="M 14.96875 0.046875 C 13.613281 0.296875 12.847656 0.421875 12.671875 0.421875 C 8.984375 0.421875 6.179688 -0.628906 4.265625 -2.734375 C 2.347656 -4.847656 1.390625 -7.945312 1.390625 -12.03125 L 1.390625 -34.140625 C 1.390625 -38.078125 2.351562 -41.066406 4.28125 -43.109375 C 6.21875 -45.148438 9.015625 -46.171875 12.671875 -46.171875 C 16.328125 -46.171875 19.125 -45.148438 21.0625 -43.109375 C 23 -41.066406 23.96875 -38.078125 23.96875 -34.140625 L 23.96875 -12.03125 C 23.96875 -8.269531 23.113281 -5.289062 21.40625 -3.09375 L 25.34375 -0.578125 L 22.265625 4.84375 Z M 12.671875 -7.984375 C 13.554688 -7.984375 14.125 -8.410156 14.375 -9.265625 C 14.625 -10.117188 14.75 -11.21875 14.75 -12.5625 L 14.75 -33.96875 C 14.75 -35.144531 14.597656 -36.066406 14.296875 -36.734375 C 13.992188 -37.410156 13.4375 -37.75 12.625 -37.75 C 11.164062 -37.75 10.4375 -36.507812 10.4375 -34.03125 L 10.4375 -12.40625 C 10.4375 -11.125 10.578125 -10.066406 10.859375 -9.234375 C 11.140625 -8.398438 11.742188 -7.984375 12.671875 -7.984375 Z M 12.671875 -7.984375 "/></g></g></g><g fill="#000000" fill-opacity="1"><g transform="translate(213.094387, 310.464911)"><g><path d="M 12.625 0.421875 C 8.851562 0.421875 6.050781 -0.640625 4.21875 -2.765625 C 2.394531 -4.898438 1.484375 -8.0625 1.484375 -12.25 L 1.484375 -45.734375 L 10.390625 -45.734375 L 10.390625 -12.625 C 10.390625 -11.164062 10.53125 -10.023438 10.8125 -9.203125 C 11.09375 -8.390625 11.695312 -7.984375 12.625 -7.984375 C 13.539062 -7.984375 14.140625 -8.382812 14.421875 -9.1875 C 14.710938 -9.988281 14.859375 -11.132812 14.859375 -12.625 L 14.859375 -45.734375 L 23.75 -45.734375 L 23.75 -12.25 C 23.75 -8.0625 22.832031 -4.898438 21 -2.765625 C 19.175781 -0.640625 16.382812 0.421875 12.625 0.421875 Z M 12.625 0.421875 "/></g></g></g><g fill="#000000" fill-opacity="1"><g transform="translate(243.661279, 310.464911)"><g><path d="M 2.03125 -45.734375 L 16.078125 -45.734375 C 18.316406 -45.734375 20.046875 -45.226562 21.265625 -44.21875 C 22.492188 -43.207031 23.320312 -41.785156 23.75 -39.953125 C 24.175781 -38.128906 24.390625 -35.800781 24.390625 -32.96875 C 24.390625 -30.375 24.050781 -28.347656 23.375 -26.890625 C 22.695312 -25.429688 21.523438 -24.421875 19.859375 -23.859375 C 21.242188 -23.578125 22.242188 -22.882812 22.859375 -21.78125 C 23.484375 -20.675781 23.796875 -19.1875 23.796875 -17.3125 L 23.703125 0 L 14.75 0 L 14.75 -17.890625 C 14.75 -19.171875 14.5 -19.988281 14 -20.34375 C 13.507812 -20.695312 12.601562 -20.875 11.28125 -20.875 L 11.28125 0 L 2.03125 0 Z M 13.53125 -28.8125 C 14.800781 -28.8125 15.4375 -30.195312 15.4375 -32.96875 C 15.4375 -34.164062 15.382812 -35.066406 15.28125 -35.671875 C 15.175781 -36.273438 14.976562 -36.691406 14.6875 -36.921875 C 14.40625 -37.160156 14 -37.28125 13.46875 -37.28125 L 11.34375 -37.28125 L 11.34375 -28.8125 Z M 13.53125 -28.8125 "/></g></g></g><g fill="#000000" fill-opacity="1"><g transform="translate(274.387931, 310.464911)"><g><path d="M 0.796875 0 L 5.21875 -45.734375 L 20.71875 -45.734375 L 25.078125 0 L 16.40625 0 L 15.765625 -7.40625 L 10.21875 -7.40625 L 9.6875 0 Z M 10.921875 -14.703125 L 15.0625 -14.703125 L 13.046875 -37.96875 L 12.625 -37.96875 Z M 10.921875 -14.703125 "/></g></g></g><g fill="#000000" fill-opacity="1"><g transform="translate(305.540578, 310.464911)"><g><path d="M 2.03125 0 L 2.03125 -45.734375 L 11.453125 -45.734375 L 15.65625 -23.859375 L 15.65625 -45.734375 L 24.5 -45.734375 L 24.5 0 L 15.546875 0 L 10.96875 -22.890625 L 10.96875 0 Z M 2.03125 0 "/></g></g></g></svg>